# xmcd CD database file
#
# Track frame offsets:
#	150
#	12187
#	22648
#	35124
#	46478
#	57437
#	70363
#	80315
#	89944
#	103164
#	114035
#	126385
#	137138
#	148826
#	162404
#	172921
#	181674
#	194750
#	206098
#	213552
#
# Disc length: 3025 seconds
#
# Revision: 0
# Processed by: cddbd v1.5.2PL0 Copyright (c) Steve Scherf et al.
# Submitted via: CDex 1.70beta2
#
DISCID=2a0bcf14
DTITLE=Country and Western - Greatest Love Songs
DYEAR=1900
DGENRE=Country
TTITLE0=Don Gibson - I Can't Stop Loving You
TTITLE1=Jim Reeves - He'll Have To Go
TTITLE2=Johnny Horton - All For The Love Of A Girl
TTITLE3=Sonny James - Young Love
TTITLE4=Marty Robbins - Singing The Blues
TTITLE5=Hank Snow - Memories Are Made Of This
TTITLE6=ohnny Cash - Ballad Of A TeenagJe Queen
TTITLE7=Marvin Rainwater - Baby Don't Go
TTITLE8=Kitty Wells and Red Foley - One By One
TTITLE9=Everly Brothers - Devoted To You
TTITLE10=Hank Williams - Lovesick Blues
TTITLE11=Hank Locklin - Please Help Me I'm Falling
TTITLE12=Bobby Bare - More Than A Poor Boy Could Give
TTITLE13=Ray Price - Heartaches By The Number
TTITLE14=Ferlin Husky - Wings Of A Dove
TTITLE15=Webb Pierce - I Ain't Never
TTITLE16=George Hamilton IV - Before This Day Ends
TTITLE17=Hank Locklin - Send Me The Pillow You Dream On
TTITLE18=Marvin Rainwater - I Dig You Baby
TTITLE19=Johnny Horton - Whispering Pine
EXTD=
EXTT0=
EXTT1=
EXTT2=
EXTT3=
EXTT4=
EXTT5=
EXTT6=
EXTT7=
EXTT8=
EXTT9=
EXTT10=
EXTT11=
EXTT12=
EXTT13=
EXTT14=
EXTT15=
EXTT16=
EXTT17=
EXTT18=
EXTT19=
PLAYORDER=
